<svg width="324" height="150" viewBox="0 0 324 150" fill="none" xmlns="http://www.w3.org/2000/svg">
<path fill-rule="evenodd" clip-rule="evenodd" d="M168.63 82.5674C168.63 84.9759 168.157 87.102 167.221 88.9456C166.275 90.7943 165.012 92.3144 163.416 93.5058C161.528 94.9438 159.501 95.9554 157.353 96.5614C155.201 97.1571 152.414 97.455 149.003 97.455H134.633V48.9766H147.922C151.494 48.9766 154.166 49.0895 155.95 49.3155C157.733 49.5415 159.449 50.0755 161.086 50.928C162.88 51.8575 164.196 53.0798 165.017 54.5844C165.849 56.0891 166.265 57.866 166.265 59.8945C166.265 62.1797 165.641 64.2185 164.393 66.0108C163.15 67.8133 161.424 69.2255 159.225 70.2372V70.4991C162.209 71.2848 164.523 72.7125 166.161 74.7872C167.814 76.8671 168.63 79.4502 168.63 82.5674ZM159.329 60.8189C159.329 59.6377 159.126 58.6312 158.716 57.7633C158.32 56.9159 157.665 56.2329 156.771 55.7348C155.69 55.1493 154.489 54.7899 153.163 54.6563C151.842 54.5331 150.012 54.4663 147.678 54.4663H141.277V68.6606H148.858C150.943 68.6606 152.487 68.5579 153.47 68.3474C154.457 68.1368 155.476 67.7157 156.532 67.0635C157.546 66.4421 158.263 65.6102 158.69 64.5934C159.121 63.5663 159.329 62.303 159.329 60.8189ZM161.7 82.8293C161.7 81.0011 161.424 79.4964 160.884 78.305C160.343 77.1238 159.256 76.1173 157.624 75.2956C156.563 74.7461 155.414 74.4021 154.171 74.248C152.924 74.0991 151.156 74.022 148.863 74.022H141.277V91.9703H146.711C149.627 91.9703 151.931 91.8368 153.615 91.5749C155.3 91.313 156.787 90.7635 158.06 89.911C159.319 89.0637 160.234 88.0982 160.821 87.0249C161.409 85.9465 161.7 84.5445 161.7 82.8293Z" fill="white"/>
<path fill-rule="evenodd" clip-rule="evenodd" d="M175.276 97.455V48.9766H206.669V54.7077H181.926V67.993H204.985V73.7344H181.926V91.7187H206.669V97.455H175.276Z" fill="white"/>
<path fill-rule="evenodd" clip-rule="evenodd" d="M227.924 98.3184C224.284 98.3184 221.201 97.9487 218.654 97.2348C216.106 96.5056 213.714 95.6069 211.474 94.549V86.4813H211.947C214.141 88.4738 216.626 90.0144 219.413 91.1083C222.189 92.2021 224.877 92.7465 227.456 92.7465C231.127 92.7465 233.908 92.0121 235.796 90.5228C237.678 89.0336 238.619 87.0718 238.619 84.6479C238.619 82.7119 238.12 81.1456 237.137 79.9285C236.154 78.7114 234.584 77.8127 232.426 77.2221C230.882 76.7907 229.468 76.4364 228.189 76.1539C226.91 75.8715 225.304 75.4915 223.375 75.019C221.648 74.5825 220.094 74.0279 218.727 73.3551C217.364 72.6824 216.153 71.8042 215.092 70.7206C214.058 69.6525 213.257 68.4097 212.685 66.9564C212.108 65.5236 211.827 63.8597 211.827 61.9699C211.827 58.0413 213.408 54.7495 216.579 52.0893C219.735 49.4394 223.775 48.1094 228.683 48.1094C231.491 48.1094 234.137 48.3816 236.643 48.9208C239.139 49.4651 241.457 50.2354 243.584 51.2317V58.9605H243.08C241.494 57.5431 239.451 56.3158 236.96 55.2579C234.47 54.2051 231.855 53.6813 229.125 53.6813C226.031 53.6813 223.536 54.3797 221.622 55.7714C219.714 57.1734 218.768 59.0119 218.768 61.2869C218.768 63.341 219.33 64.9792 220.447 66.1963C221.57 67.4134 223.198 68.307 225.324 68.8668C226.744 69.2314 228.465 69.6525 230.508 70.1198C232.551 70.582 234.241 71.0185 235.593 71.4088C239.045 72.4307 241.572 73.9714 243.158 76.0307C244.754 78.0951 245.549 80.632 245.549 83.6465C245.549 85.5261 245.149 87.4005 244.359 89.239C243.558 91.0877 242.44 92.654 241.005 93.9328C239.393 95.3399 237.568 96.4286 235.541 97.1886C233.508 97.9435 230.965 98.3184 227.924 98.3184Z" fill="white"/>
<path fill-rule="evenodd" clip-rule="evenodd" d="M264.079 97.455V54.7077H247.238V48.9766H287.574V54.7077H270.734V97.455H264.079Z" fill="white"/>
<path d="M260.747 116.989H253.405V103.955H255.09V115.448H260.747V116.989ZM271.254 103.955L266.897 116.989H265.083L260.726 103.955H262.53L266.034 114.755L269.533 103.955H271.254ZM276.885 116.989H271.966V115.659H273.583V105.285H271.966V103.955H276.885V105.285H275.268V115.659H276.885V116.989ZM288.141 103.955L283.784 116.989H281.965L277.613 103.955H279.417L282.921 114.755L286.42 103.955H288.141Z" fill="white"/>
<path fill-rule="evenodd" clip-rule="evenodd" d="M109.621 97.5164L98.583 90.9688H69.7534L58.7051 97.5164C69.2699 116.405 100.86 147.325 135.076 150C123.149 143.129 104.172 118.433 109.621 97.5164Z" fill="white"/>
<path fill-rule="evenodd" clip-rule="evenodd" d="M85.9798 62.0411L85.7666 61.6456L85.9798 62.0411ZM117.414 0C117.596 14.0659 106.303 43.3122 85.9746 48.9252L85.9798 62.0462L100.397 87.7336L111.43 94.2967C122.042 75.4342 132.274 31.8294 117.414 0Z" fill="white"/>
<path fill-rule="evenodd" clip-rule="evenodd" d="M67.9329 87.7281L67.7197 88.1133L67.9329 87.7281ZM82.3555 48.9248C61.1843 48.8992 19.3567 61.5785 0 90.7323C11.7502 83.5479 42.0148 78.9773 56.9002 94.2963L67.9329 87.7332L82.3503 62.0459L82.3555 48.9248Z" fill="white"/>
<path fill-rule="evenodd" clip-rule="evenodd" d="M77.4014 80.2358C77.4014 76.4048 80.4273 73.2979 84.1603 73.2979C87.8934 73.2979 90.9193 76.4048 90.9193 80.2358C90.9193 84.0874 87.8934 87.1943 84.1603 87.1943C80.4273 87.1943 77.4014 84.0874 77.4014 80.2358Z" fill="white"/>
</svg>
