<svg width="124" height="43" viewBox="0 0 124 43" fill="none" xmlns="http://www.w3.org/2000/svg">
<path d="M5.6816 42.7752C8.17019 42.7752 8.99587 42.0206 8.99587 39.7164V3.1359C8.99587 0.831172 8.17019 0.0771484 5.6816 0.0771484H3.31427C0.825677 0.0771484 0 0.831172 0 3.1359V39.7164C0 42.0067 0.825677 42.7752 3.31427 42.7752H5.6816Z" fill="white"/>
<path d="M46.094 42.7879C48.5711 42.7879 49.3967 42.0338 49.3967 39.7291V12.2833C49.3967 10.2582 51.077 8.666 52.8958 8.666H63.162C65.4601 8.666 66.2164 7.84165 66.2164 5.3559V3.3861C66.2164 0.914198 65.4427 0.0898438 63.162 0.0898438H50.0261C44.6505 0.0898438 40.4297 3.91703 40.4297 10.9563V39.7291C40.4297 42.02 41.2554 42.7879 43.7267 42.7879H46.0825H46.094Z" fill="white"/>
<path d="M60.371 18.2451C62.6633 18.2451 63.4197 19.0689 63.4197 21.5408V23.133C63.4197 25.6049 62.6517 26.4287 60.371 26.4287H55.4862C53.2055 26.4287 52.4375 25.6049 52.4375 23.133V21.5408C52.4375 19.0689 53.2055 18.2451 55.4862 18.2451H60.371Z" fill="white"/>
<path d="M107.865 42.7291C109.932 42.7291 110.705 42.2264 111.416 40.1171L123.016 3.59252C123.195 3.08984 123.31 2.5174 123.31 2.07006C123.31 0.869275 122.594 0.0449219 120.931 0.0449219H117.49C115.584 0.0449219 115.122 0.492262 114.522 2.33582C114.522 2.33582 107.345 26.0939 106.577 29.6559C105.803 26.0939 98.6261 2.33582 98.6261 2.33582C98.043 0.492262 97.5637 0.0449219 95.6641 0.0449219H92.217C90.5714 0.0449219 89.8555 0.869275 89.8555 2.07006C89.8555 2.5174 89.9652 3.08984 90.1499 3.59252L101.75 40.1171C102.46 42.212 103.234 42.7291 105.301 42.7291H107.847H107.865Z" fill="white"/>
<path d="M94.6008 28.3958C94.5834 27.753 94.4449 27.1944 94.11 26.3003L91.7888 19.0933C91.5232 18.4649 91.0902 18.1577 90.5821 18.1715C90.022 18.1853 89.4504 18.5208 89.2136 19.2328C89.1963 19.3169 86.5691 28.3814 86.3035 29.6104C85.5356 26.049 78.3527 2.29089 78.3527 2.29089C77.7695 0.446764 77.2903 0 75.3906 0H71.9494C70.298 0 69.582 0.824353 69.582 2.02514C69.582 2.47248 69.6917 3.04492 69.8764 3.5476L81.4765 40.086C82.1867 42.1815 82.9604 42.6842 85.0275 42.6842H87.5738C89.6582 42.6842 90.4319 42.1815 91.1306 40.086L94.1388 30.6025C94.1388 30.6025 94.6007 29.0241 94.5834 28.3675" fill="white"/>
<path d="M32.7911 42.7879C34.3155 42.7879 35.1527 42.1457 35.1527 41.1957C35.1527 40.6791 34.9044 40.1205 34.3847 39.408L21.1045 21.376C20.9833 21.1806 20.914 20.9852 21.1045 20.7338L33.432 3.79136C34.0094 3.02292 34.327 2.32482 34.327 1.68206C34.327 0.662856 33.5014 0.0898438 31.8385 0.0898438H27.8774C26.2145 0.0898438 25.2619 0.411514 24.1128 1.94781L13.454 16.7948C12.2357 18.3173 11.6641 19.4489 11.6641 20.999C11.6641 23.0662 12.1086 23.8623 13.454 25.7197L24.3669 40.9443C25.4582 42.4668 26.2145 42.7879 28.2585 42.7879H32.7911Z" fill="white"/>
</svg>
