<svg width="233" height="112" viewBox="0 0 233 112" fill="none" xmlns="http://www.w3.org/2000/svg">
<path d="M200.284 0.0761719C188.36 0.0761719 178.66 9.76082 178.66 21.6618C178.66 33.5628 188.36 43.2475 200.284 43.2475C212.201 43.2475 221.907 33.5628 221.907 21.6618C221.907 9.76082 212.201 0.0761719 200.284 0.0761719ZM217.144 9.60904C216.035 10.3529 214.88 11.036 213.662 11.628C212.952 10.2011 212.08 8.85006 211.081 7.59018C211.959 7.04368 212.813 6.45165 213.604 5.78375C214.944 6.90706 216.128 8.19732 217.144 9.60904ZM208.05 2.45942C209.77 3.15764 211.399 4.08362 212.906 5.23731C212.161 5.84445 211.353 6.42133 210.515 6.92222C209.453 5.70789 208.263 4.59974 206.959 3.64343C207.351 3.2791 207.721 2.89961 208.05 2.47458V2.45942ZM209.724 7.34725C208.569 7.96961 207.34 8.48573 206.075 8.86522C205.544 7.66604 204.949 6.48203 204.268 5.34356C204.966 5.03993 205.619 4.66044 206.243 4.18987C207.507 5.11585 208.673 6.1784 209.713 7.34725H209.724ZM207.172 2.12541C206.883 2.47458 206.56 2.79337 206.214 3.09694C205.07 2.32279 203.858 1.65484 202.593 1.09324C204.175 1.26019 205.711 1.59413 207.172 2.12541ZM205.48 3.67375C204.966 4.03808 204.401 4.35687 203.823 4.59974C203.2 3.61305 202.489 2.64152 201.745 1.70038C203.05 2.23171 204.314 2.89961 205.48 3.67375ZM200.723 1.837C201.514 2.79337 202.276 3.82554 202.957 4.88815C202.23 5.11585 201.485 5.23731 200.723 5.2828V1.837ZM200.723 6.17846C201.652 6.13292 202.564 5.96591 203.448 5.67751C204.1 6.77044 204.689 7.92413 205.226 9.10814C203.748 9.48763 202.241 9.70012 200.723 9.7305V6.17846ZM199.828 1.88254V5.2828C199.083 5.23731 198.338 5.11585 197.622 4.88815C198.292 3.85592 199.019 2.83891 199.828 1.86738V1.88254ZM196.767 4.59974C196.178 4.34171 195.63 4.03808 195.11 3.67375C196.282 2.89961 197.53 2.24687 198.84 1.70038C198.107 2.62636 197.391 3.58267 196.767 4.59974ZM198.015 1.09324C196.739 1.65484 195.52 2.32279 194.365 3.09694C194.019 2.79337 193.696 2.45942 193.407 2.12541C194.897 1.60929 196.433 1.26019 198.015 1.09324ZM212.842 38.1319C209.967 36.5529 209.909 34.367 210.059 33.5628C210.209 32.743 210.775 33.1074 211.139 33.1074C213.027 33.1074 215.019 32.5459 217.467 30.0561C220.233 27.2479 221.099 20.9787 216.855 16.9105C212.282 12.5084 207.415 13.2825 204.279 17.2293C203.644 18.0338 202.062 18.6258 200.705 18.5803C198.702 18.5044 199.96 20.083 199.96 20.4171C199.96 20.751 199.66 20.9787 199.475 20.9331C198.794 20.7358 199.065 21.7529 199.065 22.0564C199.065 22.36 198.777 22.5118 198.638 22.5118C197.789 22.5118 198.032 23.2708 198.049 23.4834C198.078 23.6807 198.003 24.0298 197.714 24.1968C197.437 24.3486 197.12 25.0165 197.12 25.5174C197.12 26.4282 197.957 27.0658 199.371 28.1134C200.769 29.1608 200.954 30.1472 200.965 30.8609C201 31.574 201.057 32.728 201.375 33.4867C201.756 34.3975 201.71 36.0825 199.764 36.1586C197.391 36.2497 193.182 38.1469 192.83 38.2685C191.496 38.7389 189.729 38.9211 188.343 38.5717C187.598 38.0408 186.9 37.4793 186.218 36.8567C185.941 35.9004 186.415 34.8835 186.9 34.2004C187.691 34.9895 188.863 34.944 189.533 34.959C190.202 34.9895 193.442 34.4736 193.898 34.3214C194.354 34.1698 194.562 34.2153 194.839 34.3214C196.069 34.7768 197.772 34.8985 198.459 32.5459C199.141 30.1777 197.512 30.8453 197.316 30.9364C197.12 31.043 196.831 31.0125 196.935 30.8153C197.241 30.2077 196.785 30.2688 196.525 30.2533C195.872 30.1927 194.989 30.8908 194.718 31.1491C194.429 31.4074 194.152 31.3768 194.048 31.3313C193.164 30.8908 190.549 31.5284 189.729 30.1016C189.804 29.7223 189.059 23.9691 188.678 22.9672C188.603 22.7547 188.528 22.4056 188.788 22.0261C189.458 21.0242 191.294 22.102 192.281 22.0716C193.47 22.0413 193.667 21.5403 193.984 21.1457C194.308 20.751 194.533 20.9787 194.7 20.8724C194.914 20.7358 194.7 20.4474 194.793 20.2956C194.868 20.1438 194.96 20.2197 195.156 20.0376C195.37 19.8554 195.128 19.4759 195.232 19.3241C195.52 18.8839 196.329 19.233 195.844 18.0794C195.584 17.4418 195.947 16.7436 196.3 16.2881C196.877 15.5443 199.112 12.4022 195.174 9.15368C191.415 6.04183 187.616 6.29986 185.167 8.9563C182.719 11.6128 183.937 15.4836 184.192 16.5006C184.451 17.5177 183.707 18.4437 182.869 18.8383C182.2 19.1571 180.664 20.1741 179.509 21.176C179.694 12.8575 184.757 5.55605 192.495 2.42904C192.83 2.83891 193.193 3.23356 193.592 3.59789C192.726 4.22025 190.837 5.90521 190.837 5.90521C190.837 5.90521 191.097 5.95075 191.34 5.99629C191.507 6.04184 191.859 6.14808 191.859 6.14808C191.859 6.14808 193.517 4.73636 194.29 4.17471C194.897 4.63012 195.566 5.02477 196.265 5.32834C195.89 5.96592 194.943 7.74196 194.943 7.74196C194.943 7.74196 195.156 7.87859 195.353 7.99999C195.555 8.13661 195.676 8.24286 195.676 8.24286C195.676 8.24286 196.71 6.29986 197.102 5.64713C197.968 5.93553 198.869 6.10254 199.793 6.14808V9.70012C199.296 9.70012 197.986 9.63942 197.454 9.57872L197.12 9.54833L197.304 9.82158C197.437 10.0341 197.547 10.2314 197.651 10.4136L197.68 10.4895H197.772C198.153 10.535 199.354 10.5653 199.793 10.5806V17.0471H200.694V15.5595C202.016 15.4988 203.113 15.4077 204.435 15.2863H204.493L205.648 14.2541L205.013 14.3148C203.61 14.4969 202.38 14.588 201.271 14.6487C201.271 14.6487 200.89 14.6639 200.694 14.6791V10.5654C202.322 10.535 203.944 10.3073 205.544 9.88228C205.983 10.9449 206.808 13.5406 206.808 13.5406L207.657 13.2825C207.657 13.2825 206.837 10.7172 206.41 9.63942C207.761 9.22955 209.055 8.66789 210.29 7.98483C211.278 9.19922 212.144 10.535 212.842 11.9467C212.201 12.2503 211.046 12.6602 211.046 12.6602C211.976 12.7664 212.692 12.979 212.692 12.979C212.692 12.979 213.027 12.8423 213.223 12.7513C213.298 12.9334 213.466 13.3129 213.466 13.3129L214.638 13.829L214.499 13.5102C214.499 13.5102 214.118 12.5843 214.026 12.3718C215.262 11.7646 216.474 11.0663 217.635 10.2922C219.84 13.662 221.007 17.5632 221.007 21.6162C221.007 28.3255 217.785 34.3064 212.813 38.0863L212.842 38.1319Z" fill="white"/>
<path d="M176.686 5.84355L176.351 6.14712C175.075 7.27032 172.188 10.2301 172.627 13.4782L172.673 13.7059L172.829 14.3433L173.222 13.979C175 12.355 176.322 9.60773 176.871 6.43553L177.021 5.54004L176.686 5.84355Z" fill="white"/>
<path d="M170.827 11.379L170.671 11.7736C170.474 12.3201 170.111 13.4584 169.914 14.961C169.637 17.1012 169.701 20.1368 171.571 22.3983L171.768 22.6716L171.981 22.9448L172.253 21.5635C172.559 19.135 172.16 14.0352 171.265 11.7585L170.959 10.9844L170.827 11.3638V11.379Z" fill="white"/>
<path d="M168.677 20.1627L168.643 20.5574C168.492 22.743 168.596 28.1159 172.962 30.9694L173.481 31.3038L173.447 30.6962C173.372 28.6474 170.987 22.5609 169.191 20.3752L168.689 19.7529L168.66 20.1476L168.677 20.1627Z" fill="white"/>
<path d="M169.417 29.7813L169.492 30.1457C170.127 33.2419 173.066 38.2508 177.61 39.7081L178.234 39.9053L178.003 39.2983C177.154 36.9912 172.789 31.588 169.977 29.8119L169.336 29.417L169.417 29.7813Z" fill="white"/>
<path d="M178.535 10.4239L178.171 10.6364C174.793 12.7006 173.217 15.1899 173.339 18.2711L173.367 18.9692L173.852 18.5594C175.677 17.0568 177.958 13.1864 178.645 11.0007L178.887 10.1963L178.535 10.4088V10.4239Z" fill="white"/>
<path d="M176.552 17.1876L176.292 17.4305C175.426 18.2501 172.632 21.225 172.874 24.8981C172.903 25.4597 173.042 26.0668 173.255 26.7043L173.452 27.2962L173.815 26.7954C175.155 24.9133 176.933 19.9652 176.829 17.6581L176.795 16.96L176.552 17.2028V17.1876Z" fill="white"/>
<path d="M176.709 23.5749L176.512 23.8634C175.098 25.9579 174.382 28.0979 174.428 30.0862C174.474 31.5435 174.93 32.9553 175.825 34.2454L176.114 34.6853L176.356 34.2149C176.968 33.0763 177.454 29.3581 177.378 26.4284C177.35 25.3963 177.24 24.5311 177.072 23.9544L176.893 23.3018L176.709 23.5901V23.5749Z" fill="white"/>
<path d="M178.348 30.3816L178.261 30.6698C177.834 32.0205 177.638 33.3562 177.667 34.6158C177.742 37.4693 179.018 39.7008 181.437 41.2486L181.847 41.5069L181.94 40.9604L181.968 40.5205C181.911 38.1979 180.173 32.3543 178.822 30.5787L178.44 30.0928L178.348 30.3816Z" fill="white"/>
<path d="M173.568 39.4356L173.747 39.7239C175.571 42.7746 178.66 46.6905 184.423 45.6886L184.908 45.5975L184.636 45.1877C183.557 43.5943 176.547 39.6328 174.07 39.2379L173.383 39.1318L173.568 39.4201V39.4356Z" fill="white"/>
<path d="M182.096 47.1813L181.184 47.424L182.05 47.7734C185.71 49.2762 190.318 49.7161 192.997 48.8208C193.996 48.4865 194.608 47.925 195.353 47.2119C200.053 47.6973 204.447 51.5983 207.016 54.7856L207.149 54.9372L207.351 54.8767C207.64 54.7856 208.079 54.4368 208.264 54.2391L208.443 54.0419L208.275 53.8292C205.602 50.3387 201.421 48.1683 201.219 48.0922C197.449 46.2555 190.792 44.8288 182.079 47.1963L182.096 47.1813Z" fill="white"/>
<path d="M182.292 37.4415L182.338 37.7447C182.887 41.2053 184.302 45.7288 190.139 45.2279L190.52 45.1973L190.428 44.833C190.035 43.2696 184.683 38.7011 182.812 37.4259L182.246 37.1377L182.292 37.4415Z" fill="white"/>
<path d="M223.605 5.54004L223.761 6.43553C224.304 9.60773 225.626 12.355 227.411 13.979L227.821 14.3433L227.953 13.7059C227.953 13.7059 228 13.4934 228 13.4782C228.444 10.2301 225.551 7.27032 224.275 6.14712L223.94 5.84355L223.605 5.54004Z" fill="white"/>
<path d="M229.691 11.0479L229.385 11.822C228.49 14.0987 228.075 19.1986 228.398 21.6271L228.669 23.0083L228.883 22.735L229.097 22.4619C230.967 20.2003 231.025 17.1647 230.754 15.0246C230.558 13.5067 230.188 12.3684 229.992 11.8372L229.842 11.4425L229.703 11.0631L229.691 11.0479Z" fill="white"/>
<path d="M231.941 19.7529L231.421 20.3752C229.625 22.5609 227.241 28.6624 227.166 30.6962L227.137 31.3038L227.651 30.9694C232.016 28.1159 232.137 22.7279 231.987 20.5574L231.952 20.1627L231.923 19.7681L231.941 19.7529Z" fill="white"/>
<path d="M231.32 29.417L230.679 29.8119C227.867 31.588 223.49 36.9763 222.653 39.2983L222.422 39.9053L223.045 39.7081C227.578 38.2508 230.529 33.2419 231.164 30.1457L231.244 29.7813L231.32 29.417Z" fill="white"/>
<path d="M221.926 10.1338L222.157 10.9383C222.78 13.139 224.998 17.0399 226.793 18.588L227.278 19.013L227.325 18.3148C227.509 15.2337 225.973 12.7141 222.642 10.5891L222.295 10.3615L221.943 10.1338H221.926Z" fill="white"/>
<path d="M223.866 16.9303L223.831 17.6284C223.745 19.9355 225.506 24.8988 226.845 26.7657L227.209 27.2665L227.405 26.6746C227.619 26.0371 227.757 25.43 227.786 24.8684C228.029 21.1953 225.234 18.2204 224.368 17.4008L224.108 17.1579L223.849 16.915L223.866 16.9303Z" fill="white"/>
<path d="M223.765 23.2993L223.563 23.952C223.395 24.5439 223.292 25.3939 223.263 26.4261C223.182 29.3557 223.673 33.0739 224.279 34.2124L224.521 34.6828L224.827 34.243C225.711 32.9373 226.178 31.5411 226.213 30.0838C226.254 28.1111 225.543 25.9555 224.129 23.8609L223.944 23.5726L223.765 23.2842V23.2993Z" fill="white"/>
<path d="M222.243 30.0928L221.879 30.5787C220.522 32.3543 218.79 38.1979 218.727 40.5205C218.727 40.5205 218.761 40.9454 218.761 40.9604L218.848 41.5069L219.264 41.2486C221.677 39.7008 222.942 37.4693 223.034 34.6158C223.063 33.3562 222.866 32.0205 222.439 30.6698L222.347 30.3816L222.255 30.0928H222.243Z" fill="white"/>
<path d="M227.254 39.1318L226.584 39.2379C224.107 39.6478 217.097 43.5943 216.017 45.1877L215.746 45.5975L216.231 45.6886C222.011 46.6905 225.094 42.7746 226.907 39.7239L227.075 39.4356L227.242 39.1468L227.254 39.1318Z" fill="white"/>
<path d="M199.37 48.1031C199.191 48.1942 194.993 50.3496 192.332 53.8407L192.164 54.0528L192.349 54.2506C192.528 54.4477 192.973 54.7971 193.261 54.8881L193.457 54.9487L193.596 54.7971C196.148 51.6092 200.559 47.7088 205.254 47.2228C206.004 47.9515 206.611 48.498 207.615 48.8317C210.271 49.7276 214.879 49.2872 218.563 47.7843L219.429 47.4355L218.517 47.1928C209.786 44.8247 203.129 46.2664 199.37 48.0881V48.1031Z" fill="white"/>
<path d="M218.401 37.1377L217.841 37.4259C215.97 38.7011 210.618 43.2696 210.225 44.833L210.133 45.1973L210.497 45.2279C216.334 45.7288 217.749 41.2053 218.297 37.7447L218.343 37.4415L218.39 37.1377H218.401Z" fill="white"/>
<path d="M68.9492 1.58496H76.3342V8.30961H68.9492V1.58496ZM69.5266 48.6877V15.945H75.728V48.6877H69.5266Z" fill="white"/>
<path d="M22.6508 15.9736H28.8521V48.7315H22.772V43.9042H22.6335C20.1564 48.0178 15.9761 49.7184 11.3973 49.7184C4.53776 49.7184 0.617188 44.4962 0.617188 37.9083V15.9888H6.81846V35.3735C6.81846 41.0506 8.1292 45.2248 14.0764 45.2248C16.6285 45.2248 20.0813 43.9197 21.3863 40.5347C22.5584 37.4684 22.6335 33.6124 22.6335 32.8382V16.004L22.6508 15.9736Z" fill="white"/>
<path d="M41.2543 20.7821H41.3928C43.4773 16.6683 48.0503 14.9834 51.3242 14.9834C53.6049 14.9834 63.744 15.5754 63.744 26.0798V48.713H57.5427V28.0985C57.5427 22.6795 55.2447 19.7498 50.0308 19.7498C50.0308 19.7498 46.6241 19.5525 44.0258 22.1634C43.1135 23.0742 41.4102 24.5163 41.4102 30.907V48.713H35.2031V15.9549H41.2889V20.7821H41.2543Z" fill="white"/>
<path d="M101.749 26.4762C101.431 22.3928 99.4854 19.5391 95.0625 19.5391C89.1615 19.5391 86.8808 24.6546 86.8808 32.305C86.8808 39.9559 89.1615 45.0715 95.0625 45.0715C99.1505 45.0715 101.674 42.4151 102.009 37.7394H108.181C107.65 45.0715 102.205 49.5345 94.999 49.5345C84.5538 49.5345 80.4023 42.1568 80.4023 32.5482C80.4023 22.9393 85.2063 15.0459 95.5302 15.0459C102.419 15.0459 107.604 19.3873 107.927 26.4611H101.766L101.749 26.4762Z" fill="white"/>
<path d="M117.451 33.4899C116.995 39.197 119.333 45.1023 125.633 45.1023C130.437 45.1023 132.839 43.2196 133.555 38.4839H140.062C139.092 45.8915 133.37 49.5804 125.587 49.5804C115.124 49.5804 110.973 42.2027 110.973 32.5941C110.973 22.9852 115.794 15.0918 126.101 15.0918C135.836 15.2891 140.443 21.437 140.443 30.4686V33.5049H117.468L117.451 33.4899ZM133.936 29.209C134.069 23.7594 131.592 19.5547 125.616 19.5547C120.477 19.5547 117.434 23.8808 117.434 29.209H133.936Z" fill="white"/>
<path d="M147.382 48.56V20.2953H141.77V16.0146H147.382V9.01675C147.578 1.88229 152.965 0 157.573 0C159.063 0 160.489 0.37949 161.996 0.637519V5.75312C160.945 5.69242 159.911 5.55579 158.861 5.55579C155.367 5.55579 153.341 6.46656 153.543 10.0338V15.9994H161.066V20.2801H153.543V48.545H147.365L147.382 48.56Z" fill="white"/>
<path d="M0 71.04V72.2846H229.222V71.04H0Z" fill="white"/>
<path d="M200.274 0.0761719C188.333 0.0761719 178.633 9.76082 178.633 21.6618C178.633 33.5628 188.333 43.2475 200.274 43.2475C212.209 43.2475 221.897 33.5628 221.897 21.6618C221.897 9.76082 212.191 0.0761719 200.274 0.0761719ZM217.134 9.60904C216.043 10.368 214.87 11.036 213.652 11.628C212.953 10.2011 212.07 8.83489 211.065 7.59018C211.966 7.05885 212.803 6.45165 213.594 5.78375C214.946 6.90706 216.129 8.19732 217.151 9.59388L217.134 9.60904ZM208.057 2.45942C209.778 3.14248 211.4 4.08362 212.89 5.2221C212.134 5.84445 211.343 6.40611 210.505 6.90706C209.443 5.69267 208.253 4.59974 206.949 3.62821C207.358 3.26394 207.705 2.86923 208.057 2.45942ZM209.714 7.36247C208.542 7.98483 207.341 8.50095 206.082 8.86522C205.545 7.6812 204.956 6.48203 204.269 5.35872C204.968 5.03993 205.626 4.66044 206.25 4.20508C207.509 5.11585 208.681 6.17846 209.714 7.36247ZM207.162 2.12541C206.885 2.45942 206.55 2.79337 206.204 3.09694C205.078 2.30757 203.859 1.63968 202.583 1.09324C204.165 1.26019 205.684 1.60929 207.162 2.12541ZM205.47 3.65859C204.956 4.03808 204.391 4.34171 203.813 4.59974C203.19 3.61305 202.474 2.64152 201.729 1.70038C203.04 2.23171 204.298 2.89961 205.47 3.65859ZM200.713 1.837C201.504 2.79337 202.266 3.82559 202.947 4.90331C202.22 5.11585 201.457 5.26764 200.713 5.2828V1.837ZM200.713 6.17846C201.642 6.14808 202.554 5.96591 203.432 5.67751C204.09 6.7856 204.697 7.92413 205.216 9.10814C203.756 9.48763 202.231 9.70012 200.713 9.7305V6.17846ZM199.818 1.88254V5.2828C199.073 5.23731 198.322 5.11585 197.612 4.90331C198.282 3.85592 199.009 2.85407 199.818 1.88254ZM196.775 4.59974C196.18 4.34171 195.632 4.03808 195.118 3.65859C196.272 2.89961 197.548 2.23171 198.842 1.70038C198.114 2.6112 197.41 3.59789 196.775 4.59974ZM198.022 1.09324C196.729 1.65484 195.51 2.32279 194.373 3.1121C194.021 2.79337 193.703 2.47458 193.397 2.14063C194.887 1.60935 196.44 1.27535 198.022 1.1084V1.09324ZM212.832 38.1469C209.957 36.5685 209.899 34.3825 210.049 33.5778C210.217 32.758 210.765 33.1224 211.129 33.1224C213.017 33.1224 215.009 32.5609 217.457 30.0711C220.206 27.2479 221.072 20.9939 216.845 16.9105C212.255 12.5084 207.405 13.2825 204.269 17.2293C203.634 18.049 202.064 18.6258 200.695 18.5955C198.692 18.5044 199.95 20.0983 199.95 20.4171C199.95 20.7358 199.65 20.9787 199.465 20.9179C198.778 20.7206 199.073 21.7377 199.073 22.0564C199.073 22.3449 198.778 22.5118 198.628 22.5118C197.779 22.5118 198.022 23.2708 198.033 23.4681C198.068 23.6807 197.993 24.0298 197.716 24.1816C197.445 24.3334 197.121 25.0013 197.121 25.5174C197.121 26.4434 197.976 27.0658 199.39 28.1134C200.788 29.1608 200.955 30.1472 200.984 30.8758C201.019 31.5895 201.076 32.728 201.394 33.5022C201.775 34.4281 201.729 36.0975 199.8 36.1736C197.41 36.2797 193.201 38.1624 192.866 38.2985C191.515 38.7695 189.765 38.9361 188.379 38.6023C187.634 38.0714 186.936 37.4943 186.266 36.8873C185.995 35.9459 186.462 34.9134 186.965 34.2303C187.756 35.0201 188.928 34.959 189.58 34.9895C190.25 35.0201 193.489 34.5036 193.945 34.352C194.402 34.2004 194.615 34.2459 194.887 34.352C196.134 34.8074 197.837 34.944 198.524 32.5609C199.223 30.1927 197.577 30.8609 197.381 30.9519C197.167 31.058 196.896 31.0275 196.988 30.8303C197.306 30.2233 196.832 30.2838 196.59 30.2688C195.937 30.1927 195.054 30.9064 194.765 31.1641C194.494 31.4223 194.205 31.3918 194.113 31.3462C193.23 30.9064 190.602 31.5284 189.794 30.1166C189.869 29.7373 189.124 23.9843 188.743 22.9976C188.668 22.7699 188.593 22.4359 188.853 22.0564C189.505 21.0546 191.347 22.1323 192.346 22.102C193.536 22.0716 193.732 21.5707 194.049 21.1608C194.373 20.7662 194.598 20.9939 194.765 20.8876C194.996 20.751 194.783 20.4626 194.858 20.3108C194.933 20.159 195.025 20.2349 195.222 20.0527C195.435 19.8706 195.21 19.4911 195.314 19.3393C195.62 18.899 196.411 19.2482 195.937 18.0945C195.666 17.457 196.041 16.7739 196.394 16.3185C196.971 15.5747 199.206 12.4325 195.268 9.18401C191.526 6.07216 187.71 6.33025 185.261 8.97152C182.831 11.6128 184.032 15.4988 184.303 16.5158C184.545 17.5481 183.818 18.474 182.969 18.8687C182.299 19.1723 180.763 20.2045 179.609 21.1912C179.805 12.8879 184.869 5.57126 192.606 2.4442C192.929 2.86923 193.304 3.24872 193.703 3.61305C192.837 4.23541 190.966 5.93553 190.966 5.93553C190.966 5.93553 191.226 5.96592 191.468 6.02662C191.619 6.07216 191.982 6.16324 191.982 6.16324C191.982 6.16324 193.639 4.75152 194.419 4.20508C195.043 4.66044 195.695 5.03993 196.411 5.35872C196.03 5.9963 195.089 7.77229 195.089 7.77229C195.089 7.77229 195.297 7.89375 195.499 8.03037C195.695 8.167 195.834 8.27324 195.834 8.27324C195.834 8.27324 196.85 6.33024 197.248 5.67751C198.114 5.96591 199.009 6.13292 199.921 6.16324V9.7305C199.419 9.7305 198.114 9.66974 197.577 9.60904L197.248 9.57872L197.445 9.8519C197.566 10.0644 197.687 10.2618 197.791 10.4439V10.5198H197.912C198.293 10.5502 199.483 10.5957 199.939 10.6109V17.0775H200.834V15.5899C202.156 15.5292 203.253 15.4381 204.575 15.3318H204.633L205.805 14.2996L205.17 14.3451C203.767 14.5273 202.537 14.6184 201.411 14.6791C201.411 14.6791 201.03 14.6943 200.834 14.7094V10.6109C202.462 10.5654 204.102 10.3377 205.684 9.92782C206.111 10.9904 206.949 13.5862 206.949 13.5862L207.797 13.3129C207.797 13.3129 206.977 10.7475 206.55 9.68496C207.907 9.25992 209.212 8.69827 210.43 8.03037C211.418 9.25993 212.284 10.5806 213 11.9923C212.347 12.2807 211.192 12.6906 211.192 12.6906C212.116 12.7968 212.832 13.0093 212.832 13.0093C212.832 13.0093 213.167 12.8727 213.363 12.7816C213.438 12.979 213.606 13.3432 213.606 13.3432L214.761 13.8594L214.628 13.5406C214.628 13.5406 214.23 12.6146 214.154 12.4022C215.384 11.795 216.603 11.0967 217.757 10.3225C219.963 13.6924 221.135 17.5936 221.135 21.6314C221.135 28.3411 217.925 34.3214 212.936 38.1163L212.832 38.1469Z" fill="white"/>
<path d="M176.676 5.82839L176.358 6.13196C175.082 7.25515 172.178 10.2149 172.634 13.463L172.663 13.6907L172.813 14.3433L173.223 13.979C175.007 12.355 176.329 9.60773 176.872 6.43553L177.028 5.54004L176.676 5.82839Z" fill="white"/>
<path d="M170.806 11.3638L170.656 11.7585C170.453 12.3048 170.09 13.428 169.911 14.961C169.634 17.1012 169.697 20.1368 171.551 22.3983L171.764 22.6715L171.978 22.9448L172.249 21.5635C172.567 19.135 172.145 14.0352 171.262 11.7585L170.956 10.9844L170.823 11.3638H170.806Z" fill="white"/>
<path d="M168.677 20.1627L168.643 20.5574C168.492 22.743 168.596 28.1159 172.962 30.9694L173.481 31.3038L173.447 30.6962C173.372 28.6474 170.987 22.5609 169.191 20.3752L168.689 19.7529L168.66 20.1627H168.677Z" fill="white"/>
<path d="M169.417 29.8171L169.475 30.1964C170.115 33.2927 173.066 38.3016 177.61 39.7589L178.216 39.9561L177.991 39.364C177.154 37.042 172.777 31.6537 169.96 29.8776L169.336 29.4678L169.417 29.8321V29.8171Z" fill="white"/>
<path d="M178.535 10.4424L178.172 10.6701C174.794 12.7192 173.229 15.2236 173.333 18.3047L173.368 19.0029L173.853 18.5931C175.694 17.0905 177.975 13.2352 178.639 11.0344L178.887 10.2451L178.518 10.4576L178.535 10.4424Z" fill="white"/>
<path d="M176.551 17.2028L176.291 17.4456C175.425 18.2653 172.642 21.225 172.873 24.9133C172.919 25.4749 173.04 26.082 173.266 26.7195L173.462 27.3115L173.814 26.7954C175.154 24.9285 176.932 19.9652 176.84 17.6581L176.794 16.96L176.551 17.2028Z" fill="white"/>
<path d="M176.708 23.5901L176.511 23.8634C175.108 25.9579 174.392 28.1135 174.427 30.0862C174.473 31.5435 174.941 32.9553 175.824 34.2454L176.13 34.6853L176.373 34.2149C176.979 33.0763 177.464 29.3581 177.389 26.4284C177.36 25.3963 177.256 24.5312 177.089 23.9392L176.904 23.3018L176.708 23.5901Z" fill="white"/>
<path d="M178.353 30.4116L178.261 30.6998C177.834 32.051 177.62 33.3867 177.666 34.6463C177.741 37.4849 179.006 39.7314 181.437 41.2642L181.847 41.5219L181.939 40.976L181.974 40.5355C181.91 38.2135 180.178 32.3698 178.821 30.5937L178.446 30.0928L178.353 30.3816V30.4116Z" fill="white"/>
<path d="M173.55 39.4506L173.735 39.7389C175.56 42.7895 178.643 46.7055 184.423 45.6886L184.896 45.5975L184.619 45.2032C183.539 43.6093 176.53 39.6633 174.053 39.2535L173.383 39.1318L173.55 39.4201V39.4506Z" fill="white"/>
<path d="M182.096 47.1863L181.184 47.429L182.061 47.7783C185.728 49.2811 190.335 49.721 193.015 48.8257C194.013 48.4764 194.626 47.9299 195.37 47.2162C200.07 47.7022 204.464 51.5882 207.034 54.7911L207.184 54.9582L207.38 54.8821C207.669 54.7911 208.114 54.4423 208.31 54.2446L208.477 54.0474L208.31 53.8347C205.631 50.3436 201.45 48.1726 201.254 48.0971C197.495 46.2604 190.838 44.8331 182.107 47.1863H182.096Z" fill="white"/>
<path d="M182.326 37.4565L182.384 37.7603C182.932 41.2208 184.347 45.7438 190.184 45.2429H190.565L190.49 44.848C190.092 43.2846 184.739 38.7161 182.874 37.4415L182.309 37.1377L182.355 37.4415L182.326 37.4565Z" fill="white"/>
<path d="M223.582 5.54004L223.749 6.43553C224.281 9.60773 225.62 12.355 227.399 13.979L227.809 14.3433C227.809 14.3433 227.947 13.7059 227.947 13.6907L228.005 13.463C228.45 10.2149 225.557 7.25515 224.281 6.13196L223.946 5.82839L223.611 5.54004H223.582Z" fill="white"/>
<path d="M229.697 11.0479L229.391 11.822C228.496 14.0987 228.086 19.1986 228.387 21.6271L228.664 23.0083L228.877 22.735L229.074 22.4619C230.944 20.2003 231.019 17.1647 230.731 15.0246C230.546 13.5067 230.165 12.3684 229.969 11.822L229.836 11.4273L229.697 11.0479Z" fill="white"/>
<path d="M231.923 19.7529L231.421 20.3752C229.625 22.5609 227.241 28.6624 227.166 30.6962L227.137 31.3038L227.651 30.9694C232.016 28.1159 232.137 22.743 231.969 20.5574L231.941 20.1627V19.7529H231.923Z" fill="white"/>
<path d="M231.32 29.4326L230.679 29.8424C227.884 31.603 223.502 37.0062 222.653 39.3288L222.422 39.9203L223.063 39.7231C227.595 38.2658 230.529 33.2724 231.164 30.1612L231.244 29.7813L231.32 29.417V29.4326Z" fill="white"/>
<path d="M221.926 10.0879L222.157 10.8924C222.78 13.0931 224.998 16.9939 226.793 18.5421L227.278 18.9671L227.313 18.2689C227.509 15.2029 225.956 12.6682 222.642 10.5432L222.295 10.3155L221.926 10.0879Z" fill="white"/>
<path d="M223.835 16.96L223.789 17.6581C223.696 19.9652 225.475 24.9285 226.814 26.7954L227.178 27.3115L227.392 26.7195C227.605 26.082 227.744 25.4749 227.773 24.9133C228.032 21.225 225.215 18.2653 224.366 17.4456L224.106 17.2028L223.846 16.96H223.835Z" fill="white"/>
<path d="M223.765 23.3018L223.563 23.9392C223.384 24.5312 223.292 25.3811 223.263 26.4284C223.182 29.3581 223.673 33.0763 224.279 34.2149L224.521 34.6853L224.827 34.2454C225.711 32.9553 226.167 31.5435 226.213 30.0862C226.254 28.1135 225.543 25.9579 224.111 23.8634L223.944 23.5901L223.748 23.3018H223.765Z" fill="white"/>
<path d="M222.243 30.0928L221.879 30.5937C220.522 32.3698 218.79 38.2135 218.727 40.5355C218.727 40.5355 218.761 40.9604 218.761 40.976L218.848 41.5219L219.264 41.2642C221.677 39.7314 222.942 37.4849 223.034 34.6463C223.063 33.3867 222.878 32.051 222.439 30.6998L222.347 30.4116L222.255 30.1233L222.243 30.0928Z" fill="white"/>
<path d="M227.242 39.1455L226.572 39.2671C224.09 39.677 217.086 43.608 216.006 45.2169L215.746 45.6118L216.214 45.7029C221.994 46.7198 225.065 42.7888 226.89 39.7531L227.057 39.4643L227.242 39.1761V39.1455Z" fill="white"/>
<path d="M199.37 48.1034C199.174 48.1945 194.993 50.3499 192.332 53.8405L192.164 54.0532L192.349 54.2503C192.516 54.448 192.972 54.7968 193.273 54.8879L193.475 54.964L193.596 54.7968C196.148 51.6095 200.559 47.7085 205.254 47.2231C205.987 47.9362 206.611 48.4983 207.615 48.8321C210.271 49.7273 214.879 49.2875 218.563 47.7846L219.44 47.4353L218.528 47.1926C209.804 44.825 203.14 46.2668 199.387 48.1034H199.37Z" fill="white"/>
<path d="M218.39 37.1377L217.841 37.4415C215.953 38.7161 210.606 43.2846 210.225 44.848L210.133 45.2279H210.514C216.334 45.7438 217.749 41.2208 218.297 37.7753L218.343 37.4715L218.39 37.1682V37.1377Z" fill="white"/>
<path d="M68.918 1.58496H76.3086V8.32477H68.918V1.58496ZM69.5127 48.6877V15.945H75.7198V48.6877H69.5127Z" fill="white"/>
<path d="M22.6335 15.9736H28.8521V48.7315H22.7547V43.9042H22.6335C20.1564 48.0178 15.9587 49.7184 11.3973 49.7184C4.53776 49.7184 0.617188 44.4962 0.617188 37.9083V15.9888H6.81846V35.3735C6.81846 41.0506 8.1292 45.2248 14.0764 45.2248C16.6112 45.2248 20.0813 43.9197 21.3863 40.5347C22.5411 37.4684 22.6219 33.6124 22.6219 32.8382V15.9888L22.6335 15.9736Z" fill="white"/>
<path d="M41.2716 20.7821H41.3928C43.4888 16.6835 48.0502 14.9834 51.3356 14.9834C53.6164 14.9834 63.7613 15.5754 63.7613 26.0798V48.728H57.5543V28.114C57.5543 22.6947 55.262 19.765 50.0308 19.765C50.0308 19.765 46.6414 19.5677 44.0258 22.1786C43.1135 23.0894 41.4102 24.5314 41.4102 30.907V48.728H35.2031V15.9701H41.2889V20.7972L41.2716 20.7821Z" fill="white"/>
<path d="M101.694 26.4762C101.359 22.3928 99.4302 19.5391 95.0015 19.5391C89.1005 19.5391 86.8198 24.6546 86.8198 32.29C86.8198 39.9253 89.1005 45.0715 95.0015 45.0715C99.0953 45.0715 101.619 42.4151 101.936 37.7394H108.109C107.577 45.0715 102.132 49.5345 94.9092 49.5345C84.464 49.5345 80.3125 42.1419 80.3125 32.5482C80.3125 22.9545 85.1165 15.0459 95.4577 15.0459C102.335 15.0459 107.531 19.3873 107.837 26.4611H101.676L101.694 26.4762Z" fill="white"/>
<path d="M117.41 33.4591C116.954 39.1667 119.298 45.0715 125.574 45.0715C130.384 45.0715 132.797 43.1893 133.496 38.438H140.009C139.033 45.8457 133.317 49.5345 125.528 49.5345C115.071 49.5345 110.902 42.1419 110.902 32.5482C110.902 22.9545 115.724 15.0459 126.048 15.0459C135.783 15.2432 140.384 21.4062 140.384 30.4228V33.4591H117.41ZM133.894 29.1782C134.045 23.7287 131.539 19.5239 125.574 19.5239C120.453 19.5239 117.41 23.8501 117.41 29.1782H133.894Z" fill="white"/>
<path d="M147.382 48.5744V20.3099H141.77V16.0292H147.382V9.04651C147.578 1.91205 152.965 0.0449219 157.585 0.0449219C159.074 0.0449219 160.506 0.424412 162.013 0.682498V5.79804C160.962 5.7525 159.929 5.61588 158.878 5.61588C155.379 5.61588 153.375 6.5267 153.554 10.0787V16.0292H161.084V20.3099H153.554V48.5744H147.382Z" fill="white"/>
<path d="M12.5007 111.018V107.299H2.37311V111.018H0V105.387H1.3511C2.06707 104.416 2.30955 103.991 2.61557 103.156C3.22184 101.441 3.4355 99.5741 3.4355 96.1285V94.0947H13.1994V105.387H14.8853V111.018H12.5122H12.5007ZM10.6761 95.9464H5.83751C5.77977 99.4524 5.65851 100.712 5.26011 102.503C5.0176 103.551 4.72887 104.537 4.07641 105.372H10.6761V95.9464Z" fill="white"/>
<path d="M16.4437 105.478C18.1586 105.478 18.7072 103.535 18.7072 97.4941V94.0635H28.1361V107.284H25.6244V95.9307H21.2189V98.6775C21.2189 102.502 20.6068 105.523 19.6368 106.525C19.1344 107.025 18.3145 107.481 16.9461 107.481C16.6574 107.481 15.8028 107.375 15.543 107.299V105.326C15.6815 105.372 16.259 105.478 16.4437 105.478Z" fill="white"/>
<path d="M32.4522 100.469C31.7073 99.8623 31.3089 98.9215 31.3089 97.813C31.3089 95.567 33.1046 94.0947 35.7953 94.0947H42.2911V107.315H39.7794V101.79H36.3265C35.2929 101.79 34.9292 101.896 34.5655 102.321C34.2132 102.685 34.092 103.141 34.0169 104.325C33.9592 104.871 33.9592 104.962 33.913 105.296C33.7744 106.191 33.6994 106.662 33.5492 107.33H30.9336C31.2512 106.541 31.3551 106.085 31.5861 104.385L31.6322 103.991C31.765 103.065 31.8748 102.701 32.1 102.306C32.4984 101.699 32.891 101.411 33.8206 101.152V101.122C33.1046 100.91 32.8159 100.773 32.4522 100.484V100.469ZM39.7967 95.9314H36.4478C34.9004 95.9314 33.9707 96.69 33.9707 97.9801C33.9707 99.2703 34.8714 100.014 36.6152 100.014H39.8082V95.9314H39.7967Z" fill="white"/>
<path d="M52.5391 107.315V94.0947H55.045V100.151H55.0911L60.0048 94.0947H63.2383L57.5682 100.333L63.5905 107.315H60.334L55.0911 100.788H55.045V107.315H52.5391Z" fill="white"/>
<path d="M70.7052 93.7314C74.9491 93.7314 77.2009 96.5238 77.2009 100.652C77.2009 104.993 74.5853 107.741 70.4973 107.741C66.4035 107.741 63.9727 105.1 63.9727 100.835C63.9727 96.5693 66.3111 93.7158 70.7052 93.7158V93.7314ZM70.555 105.904C73.3554 105.904 74.568 103.293 74.568 100.576C74.568 97.4196 73.1418 95.5525 70.7225 95.5525C68.3032 95.5525 66.5883 97.5563 66.5883 100.561C66.5883 103.901 68.0896 105.904 70.5724 105.904H70.555Z" fill="white"/>
<path d="M94.2171 107.315L88.9743 100.788L88.9108 100.819V107.33H86.4049V100.819L86.3587 100.788L81.1101 107.315H77.8594L83.8181 100.333L78.1942 94.0947H81.4334L86.3413 100.151L86.3876 100.121V94.0947H88.8993V100.121L88.957 100.151L93.8707 94.0947H97.1099L91.4687 100.333L97.4563 107.315H94.2171Z" fill="white"/>
<path d="M101.947 107.315H99.4414V94.0947H101.947V99.5435H108.472V94.0947H110.984V107.315H108.472V101.395H101.947V107.315Z" fill="white"/>
<path d="M120.742 93.7314C124.986 93.7314 127.232 96.5238 127.232 100.652C127.232 104.993 124.622 107.741 120.529 107.741C116.441 107.741 114.004 105.1 114.004 100.835C114.004 96.5693 116.348 93.7158 120.742 93.7158V93.7314ZM120.592 105.904C123.387 105.904 124.605 103.293 124.605 100.576C124.605 97.4196 123.173 95.5525 120.76 95.5525C118.34 95.5525 116.62 97.5563 116.62 100.561C116.62 103.901 118.127 105.904 120.604 105.904H120.592Z" fill="white"/>
<path d="M127.988 91.0076V88.3213H130.39V91.0076H127.988ZM130.39 94.1194H132.867V107.34H130.39V94.1194ZM132.96 91.0076V88.3213H135.362V91.0076H132.96Z" fill="white"/>
<path d="M154.434 111.018V107.299H144.307V111.018H141.934V105.387H143.273C143.989 104.416 144.232 103.991 144.532 103.156C145.144 101.441 145.358 99.5741 145.358 96.1285V94.0947H155.116V105.387H156.802V111.018H154.434ZM152.61 95.9464H147.771C147.713 99.4524 147.592 100.712 147.194 102.503C146.951 103.551 146.663 104.537 146.01 105.372H152.61V95.9464Z" fill="white"/>
<path d="M159.203 107.315V94.0947H161.634V104.006H161.709L167.957 94.0947H170.728V107.315H168.292V97.3881H168.216L161.969 107.315H159.203Z" fill="white"/>
<path d="M184.827 95.9613H180.023V107.315H177.511V95.9613H172.707V94.0947H184.827V95.9613Z" fill="white"/>
<path d="M186.82 107.315V94.0947H189.257V104.006H189.332L195.579 94.0947H198.345V107.315H195.914V97.3881H195.839L189.592 107.315H186.82Z" fill="white"/>
<path d="M204.801 107.315H202.289V94.0947H204.801V99.5435H211.32V94.0947H213.831V107.315H211.32V101.395H204.801V107.315Z" fill="white"/>
<path d="M217.812 107.315V94.0947H220.243V104.006H220.318L226.566 94.0947H229.338V107.315H226.901V97.3881H226.826L220.578 107.315H217.812Z" fill="white"/>
</svg>
