<svg width="174" height="145" viewBox="0 0 174 145" fill="none" xmlns="http://www.w3.org/2000/svg">
<path d="M17.0078 38.6909C18.08 38.6909 18.8064 38.5358 19.1875 38.2247C19.5674 37.9135 19.818 37.1371 19.9398 35.8934C20.0605 34.6497 20.1211 32.3017 20.1211 28.8483V22.373H23.2351V28.8483C23.2351 32.8371 23.1311 35.643 22.9233 37.2659C22.7154 38.8889 22.1876 40.0509 21.3406 40.7498C20.493 41.4486 19.0489 41.7985 17.0084 41.7985V38.6899L17.0078 38.6909ZM31.5363 22.373V25.4818H23.2339V22.373H31.5363ZM34.6497 41.7996H31.5363V22.373H34.6497V41.7996Z" fill="white"/>
<path d="M40.1061 22.373V41.7996H36.9922V22.373H40.1061ZM40.1061 41.7996V38.6909H44.8535C46.7733 38.6909 48.1822 38.4321 49.0829 37.9135C49.9825 37.3959 50.4312 36.498 50.4312 35.2197C50.4312 33.8387 49.9854 32.8842 49.0956 32.3572C48.2047 31.8302 46.7907 31.5672 44.8535 31.5672H40.1061V28.4584H44.8535C47.707 28.4584 49.8688 29.0117 51.3394 30.116C52.8095 31.2214 53.5439 32.9219 53.5439 35.2187C53.5439 37.5153 52.8083 39.0996 51.3394 40.1787C49.8688 41.2579 47.707 41.7975 44.8535 41.7975H40.1061V41.7996Z" fill="white"/>
<path d="M59.0079 41.7996H55.8945V22.373H59.0079V41.7996ZM59.0079 38.6909H63.7558C65.6751 38.6909 67.0944 38.4834 68.0101 38.0696C68.9265 37.6547 69.3849 36.9213 69.3849 35.8682C69.3849 34.8844 68.9305 34.1971 68.0228 33.8094C67.1151 33.4206 65.6919 33.2268 63.7547 33.2268H59.0073V30.1181H63.7547C65.0868 30.1181 66.0897 29.9148 66.7647 29.5093C67.4396 29.1039 67.7763 28.4857 67.7763 27.6569C67.7763 26.8795 67.4425 26.3231 66.7774 25.9857C66.1111 25.6494 65.1035 25.4807 63.7547 25.4807H59.0073V22.373H63.7547C65.9511 22.373 67.6931 22.745 68.9819 23.4868C70.2706 24.2297 70.915 25.4472 70.915 27.1394C70.915 28.0205 70.8584 28.7151 70.7464 29.2244C70.6338 29.7336 70.3734 30.1747 69.9675 30.5456C69.5616 30.9175 68.9421 31.2151 68.1123 31.4394C69.1667 31.5944 70.001 31.8239 70.6159 32.1257C71.2303 32.4284 71.7014 32.9031 72.03 33.5506C72.3579 34.1981 72.5231 35.1002 72.5231 36.2569C72.5231 38.1911 71.7621 39.5983 70.2406 40.4795C68.7186 41.3606 66.5568 41.8007 63.7547 41.8007H59.0073V38.6919L59.0079 38.6909Z" fill="white"/>
<path d="M77.9694 41.7996H74.8555V22.373H77.9694V41.7996Z" fill="white"/>
<path d="M83.3952 41.7996H80.2812V22.373H83.3952V41.7996ZM83.3952 38.6909H88.1425C90.0624 38.6909 91.4811 38.4834 92.3974 38.0696C93.3132 37.6547 93.7722 36.9213 93.7722 35.8682C93.7722 34.8844 93.3178 34.1971 92.4095 33.8094C91.5019 33.4206 90.0791 33.2268 88.1414 33.2268H83.394V30.1181H88.1414C89.4734 30.1181 90.477 29.9148 91.1514 29.5093C91.8264 29.1039 92.163 28.4857 92.163 27.6569C92.163 26.8795 91.8292 26.3231 91.1641 25.9857C90.4977 25.6494 89.4902 25.4807 88.1414 25.4807H83.394V22.373H88.1414C90.3384 22.373 92.0804 22.745 93.3692 23.4868C94.6579 24.2297 95.3023 25.4472 95.3023 27.1394C95.3023 28.0205 95.2451 28.7151 95.1331 29.2244C95.0211 29.7336 94.7607 30.1747 94.3542 30.5456C93.9483 30.9175 93.3293 31.2151 92.499 31.4394C93.5539 31.5944 94.3883 31.8239 95.0032 32.1257C95.617 32.4284 96.0882 32.9031 96.4167 33.5506C96.7452 34.1981 96.9098 35.1002 96.9098 36.2569C96.9098 38.1911 96.1488 39.5983 94.6273 40.4795C93.1053 41.3606 90.9435 41.8007 88.1414 41.8007H83.394V38.6919L83.3952 38.6909Z" fill="white"/>
<path d="M104.445 32.416H113.033V35.5247H104.445V32.416Z" fill="white"/>
<path d="M20.0988 82.4494C19.7177 80.8959 19.0646 79.7516 18.1391 79.0171C17.2135 78.2839 15.9732 77.9161 14.416 77.9161C13.2225 77.9161 12.1751 78.1928 11.2767 78.745C10.3777 79.2979 9.68188 80.109 9.18821 81.1801C8.69511 82.2506 8.44855 83.5194 8.44855 84.9876C8.44855 86.4553 8.69511 87.6642 9.18821 88.7174C9.68188 89.7706 10.3777 90.5869 11.2767 91.1651C12.1763 91.7433 13.2225 92.0327 14.416 92.0327C15.99 92.0327 17.2343 91.6436 18.1518 90.8676C19.0681 90.09 19.7344 88.8817 20.1501 87.2411H22.7964C22.4159 89.6928 21.4776 91.5369 19.9821 92.7712C18.4855 94.0065 16.6309 94.6239 14.4166 94.6239C12.8605 94.6239 11.4291 94.2308 10.1236 93.445C8.81693 92.6593 7.77992 91.541 7.00967 90.0911C6.24057 88.6407 5.85547 86.9396 5.85547 84.9882C5.85547 83.0374 6.24057 81.3317 7.00967 79.8732C7.77877 78.4136 8.81693 77.2918 10.1236 76.506C11.4291 75.7197 12.8605 75.3271 14.4166 75.3271C16.5783 75.3271 18.4035 75.9192 19.8909 77.101C21.3777 78.2839 22.3298 80.0669 22.7444 82.4494H20.0976H20.0988Z" fill="white"/>
<path d="M38.8791 75.6104V78.0713H23.832V75.6104H38.8791ZM32.6005 94.3895H30.1101V75.6104H32.6005V94.3895Z" fill="white"/>
<path d="M48.7325 94.6245C47.1238 94.6245 45.6491 94.2319 44.309 93.4462C42.9688 92.6599 41.9047 91.5421 41.1177 90.0923C40.3307 88.6419 39.9375 86.958 39.9375 85.0407C39.9375 83.1233 40.3307 81.3536 41.1177 79.8859C41.9047 78.4182 42.9683 77.2918 44.309 76.506C45.6491 75.7197 47.1238 75.3271 48.7325 75.3271C50.3417 75.3271 51.8106 75.7197 53.1438 76.506C54.4753 77.2918 55.5342 78.4188 56.3212 79.8859C57.1082 81.3536 57.502 83.072 57.502 85.0407C57.502 87.0093 57.1082 88.6407 56.3212 90.0923C55.5342 91.5421 54.4701 92.661 53.13 93.4462C51.7898 94.2319 50.3238 94.6245 48.7325 94.6245ZM48.7325 92.0085C50.012 92.0085 51.1108 91.7237 52.0283 91.1536C52.944 90.5834 53.6496 89.7724 54.1427 88.7186C54.6358 87.6654 54.8823 86.4398 54.8823 85.0407C54.8823 83.573 54.6398 82.3082 54.156 81.2458C53.6715 80.1833 52.9671 79.3682 52.0415 78.7981C51.116 78.2285 50.0131 77.9432 48.7336 77.9432C47.4547 77.9432 46.3507 78.2285 45.4257 78.7981C44.5001 79.3682 43.7916 80.1845 43.2985 81.2458C42.8054 82.3082 42.5589 83.573 42.5589 85.0407C42.5589 86.509 42.8054 87.6873 43.2985 88.7324C43.7916 89.777 44.5053 90.5846 45.4395 91.1536C46.3738 91.7237 47.4714 92.0085 48.7348 92.0085H48.7325Z" fill="white"/>
<path d="M59.8203 91.9279C60.7707 91.9279 61.429 91.721 61.7922 91.3071C62.1553 90.892 62.3921 90.0077 62.5058 88.6518C62.6178 87.296 62.6744 84.8927 62.6744 81.4379V75.6104H65.1387V81.4379C65.1387 85.3233 65.0429 88.1036 64.8529 89.7783C64.6624 91.4535 64.2045 92.6404 63.4787 93.3397C62.7523 94.0384 61.5329 94.3883 59.8203 94.3883V91.9273V91.9279ZM73.4406 75.6104V78.0713H65.1387V75.6104H73.4406ZM75.9049 94.3895H73.4406V75.6104H75.9049V94.3895Z" fill="white"/>
<path d="M78.2422 75.6104H80.8364V94.3895H78.2422V75.6104ZM93.5745 77.0354L80.8364 94.3895L79.0199 92.9644L91.758 75.6104L93.5733 77.0354H93.5745ZM91.7591 75.6104H94.2241V94.3895H91.7591V75.6104Z" fill="white"/>
<path d="M96.582 94.3895V75.6104H99.0469V94.3895H96.582ZM96.582 91.9279H114.743V94.3895H96.582V91.9279ZM99.0469 91.9279H109.944V94.3895H99.0469V91.9279ZM109.944 94.3895V75.6104H112.409V94.3895H109.944ZM112.409 100.606V94.3895H114.743L114.744 100.606H112.409Z" fill="white"/>
<path d="M129.875 75.6104V78.0713H125.127C123.207 78.0713 121.797 78.3301 120.898 78.849C119.998 79.3666 119.549 80.2654 119.549 81.5428C119.549 82.9246 119.994 83.8781 120.885 84.405C121.776 84.9325 123.19 85.1953 125.127 85.1953H129.875V87.6563H125.127C123.535 87.6563 122.139 87.4407 120.938 87.0089C119.735 86.5771 118.788 85.9078 118.097 85.0016C117.405 84.0948 117.059 82.9425 117.059 81.544C117.059 80.1449 117.404 79.1049 118.097 78.2148C118.788 77.3254 119.74 76.6699 120.95 76.2462C122.16 75.8231 123.553 75.6115 125.127 75.6115H129.875V75.6104ZM124.945 85.9194L120.379 94.3895H117.422L122.429 85.3758L124.945 85.9194ZM129.875 94.3895V75.6104H132.34V94.3895H129.875Z" fill="white"/>
<path d="M29.8581 130.978C29.8581 129.734 30.1174 128.651 30.637 127.727C31.1555 126.804 31.8998 126.082 32.8681 125.564C33.837 125.047 34.9871 124.787 36.3186 124.787C38.3072 124.787 39.8691 125.292 41.0014 126.302C42.1336 127.312 42.7006 128.723 42.7006 130.537C42.7006 131.504 42.4968 132.333 42.0909 133.023C41.6844 133.714 41.1607 134.298 40.5209 134.772C39.8806 135.248 39.0422 135.761 38.0041 136.314L35.773 137.505L35.3573 137.712C34.475 138.213 33.796 138.696 33.3202 139.162C32.8438 139.628 32.4766 140.229 32.2174 140.962C31.9581 141.697 31.8282 142.65 31.8282 143.825H29.3633C29.3633 142.322 29.5665 141.062 29.973 140.043C30.3789 139.025 31.0013 138.139 31.8409 137.388C32.6793 136.637 33.8422 135.873 35.3301 135.096L37.3285 134.06C38.0029 133.715 38.5382 133.396 38.9371 133.101C39.335 132.808 39.6468 132.454 39.8714 132.039C40.096 131.623 40.208 131.124 40.208 130.536C40.208 129.518 39.9049 128.719 39.3003 128.14C38.6946 127.562 37.6998 127.272 36.3169 127.272C34.9334 127.272 34.0079 127.618 33.3329 128.308C32.6585 128.999 32.3213 129.888 32.3213 130.976H29.8564L29.8581 130.978ZM42.7266 141.365V143.826H29.3662L30.1451 141.365H42.7278H42.7266Z" fill="white"/>
<path d="M52.0902 143.803C50.7927 143.803 49.6079 143.425 48.5357 142.664C47.4629 141.904 46.6158 140.811 45.9928 139.387C45.3704 137.963 45.0586 136.275 45.0586 134.323C45.0586 132.371 45.3704 130.685 45.9928 129.26C46.6153 127.835 47.4629 126.751 48.5357 126.008C49.6079 125.266 50.7927 124.895 52.0902 124.895C53.387 124.895 54.5938 125.266 55.6574 126.008C56.7215 126.751 57.5599 127.835 58.1737 129.26C58.7874 130.685 59.0952 132.373 59.0952 134.323C59.0952 136.275 58.7874 137.963 58.1737 139.387C57.5599 140.812 56.7215 141.904 55.6574 142.664C54.5932 143.423 53.4037 143.803 52.0902 143.803ZM52.0902 141.11C53.6295 141.11 54.7618 140.523 55.4893 139.348C56.2157 138.174 56.5783 136.499 56.5783 134.323C56.5783 132.147 56.2157 130.455 55.4893 129.298C54.763 128.142 53.6295 127.563 52.0902 127.563C50.5502 127.563 49.4179 128.142 48.6922 129.298C47.9658 130.455 47.6026 132.13 47.6026 134.323C47.6026 136.516 47.9658 138.196 48.6922 139.361C49.4179 140.526 50.5502 141.11 52.0902 141.11Z" fill="white"/>
<path d="M61.929 130.978C61.929 129.734 62.1883 128.651 62.7079 127.727C63.2259 126.804 63.9701 126.082 64.939 125.564C65.9073 125.047 67.0575 124.787 68.3895 124.787C70.3781 124.787 71.94 125.292 73.0722 126.302C74.2045 127.312 74.771 128.723 74.771 130.537C74.771 131.504 74.5677 132.333 74.1612 133.023C73.7553 133.714 73.2316 134.298 72.5913 134.772C71.951 135.248 71.1126 135.761 70.075 136.314L67.8439 137.505L67.4282 137.712C66.5453 138.213 65.8663 138.696 65.3911 139.162C64.9147 139.628 64.5475 140.229 64.2883 140.962C64.029 141.697 63.8985 142.65 63.8985 143.825H61.4336C61.4336 142.322 61.6363 141.062 62.0433 140.043C62.4493 139.025 63.0717 138.139 63.9112 137.388C64.7496 136.637 65.9125 135.873 67.401 135.096L69.3988 134.06C70.0738 133.715 70.6091 133.396 71.0081 133.101C71.4053 132.808 71.7171 132.454 71.9417 132.039C72.1663 131.623 72.2789 131.124 72.2789 130.536C72.2789 129.518 71.9752 128.719 71.3707 128.14C70.7655 127.562 69.7707 127.272 68.3872 127.272C67.0044 127.272 66.0788 127.618 65.4038 128.308C64.7288 128.999 64.3922 129.888 64.3922 130.976H61.9267L61.929 130.978ZM74.7975 141.365V143.826H61.4365L62.2154 141.365H74.7987H74.7975Z" fill="white"/>
<path d="M79.5882 138.47C79.6228 139.421 80.0287 140.18 80.8077 140.749C81.586 141.319 82.5976 141.604 83.8425 141.604C84.5688 141.604 85.2432 141.445 85.8657 141.125C86.4881 140.805 86.9899 140.335 87.371 139.714C87.7509 139.093 87.9414 138.35 87.9414 137.486C87.9414 136.14 87.6048 135.143 86.9298 134.495C86.2554 133.847 85.2265 133.523 83.8425 133.523V131.062C86.0042 131.062 87.6435 131.611 88.759 132.708C89.8746 133.805 90.4329 135.397 90.4329 137.486C90.4329 138.954 90.1436 140.185 89.5639 141.178C88.9848 142.171 88.1978 142.904 87.2029 143.379C86.2081 143.854 85.0879 144.091 83.8436 144.091C82.5987 144.091 81.5086 143.888 80.523 143.482C79.5374 143.077 78.7412 142.451 78.1366 141.605C77.5309 140.759 77.1943 139.714 77.125 138.471H79.5899L79.5882 138.47ZM78.8352 125.053H81.3262L79.6396 136.424H77.1741L78.8352 125.053ZM78.8618 136.424C78.9825 135.422 79.225 134.524 79.5882 133.73C79.9514 132.936 80.4832 132.293 81.183 131.8C81.8834 131.307 82.7696 131.061 83.8425 131.061V133.523C82.8568 133.523 82.0658 133.669 81.4688 133.963C80.8718 134.256 80.4346 134.615 80.1586 135.038C79.8821 135.461 79.7089 135.923 79.6407 136.424H78.8618ZM89.4213 125.053V127.514H79.5102V125.053H89.4213Z" fill="white"/>
<path d="M56.3169 109.093C55.9364 107.539 55.2834 106.395 54.3578 105.661C53.4322 104.927 52.192 104.56 50.6342 104.56C49.4413 104.56 48.3938 104.836 47.4954 105.388C46.5958 105.941 45.9001 106.753 45.407 107.823C44.9139 108.894 44.6673 110.163 44.6673 111.631C44.6673 113.099 44.9139 114.308 45.407 115.361C45.9001 116.414 46.5958 117.23 47.4954 117.809C48.395 118.387 49.4413 118.676 50.6342 118.676C52.2088 118.676 53.4531 118.287 54.3705 117.511C55.2869 116.734 55.9532 115.525 56.3683 113.885H59.0152C58.6346 116.336 57.6964 118.18 56.2009 119.415C54.7043 120.65 52.8497 121.267 50.6353 121.267C49.0793 121.267 47.6479 120.874 46.3424 120.089C45.0357 119.302 43.9987 118.185 43.2285 116.735C42.4594 115.284 42.0742 113.583 42.0742 111.632C42.0742 109.681 42.4594 107.975 43.2285 106.517C43.9976 105.057 45.0357 103.935 46.3424 103.149C47.6479 102.363 49.0793 101.971 50.6353 101.971C52.7971 101.971 54.6223 102.562 56.1097 103.745C57.5965 104.927 58.5486 106.71 58.9626 109.093H56.3169ZM43.0858 112.849V110.389H51.0251V112.849H43.0858Z" fill="white"/>
<path d="M63.8288 121.017H61.3633V102.237H63.8288V121.017ZM63.8288 118.556H68.5762C70.496 118.556 71.9147 118.322 72.831 117.856C73.7473 117.391 74.2058 116.57 74.2058 115.395C74.2058 114.325 73.7387 113.535 72.8045 113.026C71.8708 112.516 70.4614 112.262 68.5756 112.262H63.8276V109.8H68.5756C69.9584 109.8 70.9753 109.585 71.6243 109.153C72.2727 108.721 72.5972 108.039 72.5972 107.106C72.5972 106.226 72.2807 105.604 71.6502 105.241C71.0186 104.879 69.9943 104.698 68.5762 104.698H63.8288V102.236H68.5762C70.6346 102.236 72.2346 102.609 73.3755 103.351C74.5176 104.093 75.0881 105.258 75.0881 106.847C75.0881 107.693 75.0107 108.358 74.8542 108.842C74.6989 109.326 74.4039 109.731 73.9714 110.059C73.5395 110.387 72.8905 110.672 72.0261 110.914C73.0983 111.069 73.9633 111.294 74.6204 111.588C75.2775 111.881 75.7873 112.344 76.1517 112.974C76.5143 113.605 76.6961 114.481 76.6961 115.603C76.6961 117.502 76.0171 118.879 74.6591 119.735C73.301 120.589 71.2738 121.017 68.5756 121.017H63.8276V118.556H63.8288Z" fill="white"/>
<path d="M79.0352 121.004V102.225H81.5001V121.004H79.0352ZM86.248 102.225C88.859 102.225 90.8574 102.709 92.2415 103.675C93.6249 104.642 94.3172 106.136 94.3172 108.156C94.3172 110.176 93.6301 111.787 92.2553 112.78C90.8805 113.773 88.8781 114.269 86.2492 114.269H81.5012V111.808H86.2492C88.1864 111.808 89.5998 111.545 90.4908 111.018C91.3817 110.49 91.8269 109.537 91.8269 108.155C91.8269 106.878 91.3765 105.979 90.4786 105.461C89.579 104.944 88.1696 104.684 86.2492 104.684H81.5012V102.223H86.2492L86.248 102.225Z" fill="white"/>
<path d="M105.174 121.268C103.566 121.268 102.091 120.875 100.751 120.089C99.4108 119.303 98.3467 118.186 97.5597 116.735C96.7727 115.285 96.3789 113.602 96.3789 111.684C96.3789 109.767 96.7727 107.997 97.5597 106.529C98.3467 105.061 99.4103 103.935 100.751 103.149C102.091 102.363 103.566 101.971 105.174 101.971C106.784 101.971 108.253 102.363 109.585 103.149C110.917 103.935 111.976 105.062 112.763 106.529C113.55 107.997 113.944 109.716 113.944 111.684C113.944 113.653 113.55 115.284 112.763 116.735C111.976 118.186 110.912 119.305 109.572 120.089C108.232 120.875 106.766 121.268 105.174 121.268ZM105.174 118.652C106.455 118.652 107.553 118.367 108.47 117.797C109.386 117.227 110.092 116.416 110.585 115.362C111.078 114.309 111.323 113.083 111.323 111.684C111.323 110.217 111.081 108.952 110.597 107.889C110.112 106.827 109.408 106.012 108.482 105.442C107.557 104.872 106.454 104.587 105.174 104.587C103.895 104.587 102.791 104.872 101.866 105.442C100.941 106.012 100.233 106.828 99.7394 107.889C99.2463 108.951 98.9997 110.217 98.9997 111.684C98.9997 113.152 99.2463 114.331 99.7394 115.375C100.233 116.42 100.946 117.228 101.88 117.797C102.815 118.367 103.912 118.652 105.176 118.652H105.174Z" fill="white"/>
<path d="M119.254 121.015H116.789V102.236H119.254V121.015ZM130.151 102.236V104.698H119.254V102.236H130.151ZM132.616 121.015H130.151V102.236H132.616V121.015Z" fill="white"/>
<path d="M134.957 102.236H137.551V121.015H134.957V102.236ZM150.29 103.661L137.551 121.015L135.736 119.591L148.474 102.236L150.29 103.661ZM148.474 102.236H150.939V121.015H148.474V102.236Z" fill="white"/>
<path d="M0 47.9619L2.46491 47.4443L10.5081 66.2237H8.04261L0 47.9619ZM2.46491 66.2237H0V47.4443H2.46491V66.2237ZM16.475 47.4443L18.81 47.9619L11.0272 66.2237H8.69219L16.475 47.4443ZM18.81 66.2237H16.475V47.4443H18.81V66.2237Z" fill="white"/>
<path d="M30.1979 66.4762C28.5892 66.4762 27.1145 66.0837 25.7744 65.2979C24.4342 64.5116 23.3701 63.3938 22.5831 61.944C21.7961 60.4936 21.4023 58.8098 21.4023 56.8924C21.4023 54.9751 21.7961 53.2054 22.5831 51.7375C23.3701 50.2696 24.4331 49.1433 25.7744 48.3574C27.1145 47.5716 28.5892 47.1787 30.1979 47.1787C31.8071 47.1787 33.276 47.5716 34.6086 48.3574C35.9407 49.1433 36.9996 50.2707 37.7866 51.7375C38.5736 53.2054 38.9674 54.9238 38.9674 56.8924C38.9674 58.8611 38.5736 60.4925 37.7866 61.944C36.9996 63.3938 35.9355 64.5128 34.5954 65.2979C33.2552 66.0837 31.7892 66.4762 30.1979 66.4762ZM30.1979 63.8602C31.4774 63.8602 32.5762 63.5749 33.4931 63.0053C34.4094 62.4352 35.1144 61.6241 35.6081 60.5703C36.1012 59.5171 36.3478 58.2915 36.3478 56.8924C36.3478 55.4247 36.1052 54.1599 35.6214 53.0975C35.1369 52.0351 34.4325 51.2199 33.507 50.6499C32.5814 50.08 31.4785 49.795 30.199 49.795C28.9195 49.795 27.8155 50.08 26.8911 50.6499C25.9655 51.2199 25.257 52.0361 24.7639 53.0975C24.2708 54.1599 24.0243 55.4247 24.0243 56.8924C24.0243 58.3607 24.2708 59.539 24.7639 60.5836C25.257 61.6281 25.9707 62.4363 26.9049 63.0053C27.8386 63.5749 28.9368 63.8602 30.2002 63.8602H30.1979Z" fill="white"/>
<path d="M41.3047 63.7621C42.2551 63.7621 42.9133 63.5546 43.2765 63.1407C43.6397 62.7262 43.877 61.8419 43.9902 60.4861C44.1022 59.1302 44.1588 56.7263 44.1588 53.272V47.4443H46.6232V53.272C46.6232 57.1569 46.5279 59.9378 46.3379 61.6119C46.1468 63.2877 45.6889 64.4747 44.9631 65.1733C44.2368 65.8726 43.0173 66.2225 41.3047 66.2225V63.761V63.7621ZM54.9256 47.4443V49.9055H46.6232V47.4443H54.9256ZM57.3894 66.2237H54.9256V47.4443H57.3894V66.2237Z" fill="white"/>
<path d="M69.0299 66.4762C67.4213 66.4762 65.9466 66.0837 64.6064 65.2979C63.2663 64.5116 62.2021 63.3938 61.4151 61.944C60.6282 60.4936 60.2344 58.8098 60.2344 56.8924C60.2344 54.9751 60.6282 53.2054 61.4151 51.7375C62.2021 50.2696 63.2651 49.1433 64.6064 48.3574C65.9466 47.5716 67.4213 47.1787 69.0299 47.1787C70.6385 47.1787 72.108 47.5716 73.4407 48.3574C74.7727 49.1433 75.8317 50.2707 76.6187 51.7375C77.4057 53.2054 77.7994 54.9238 77.7994 56.8924C77.7994 58.8611 77.4057 60.4925 76.6187 61.944C75.8317 63.3938 74.7675 64.5128 73.4274 65.2979C72.0872 66.0837 70.6212 66.4762 69.0299 66.4762ZM69.0299 63.8602C70.3094 63.8602 71.4082 63.5749 72.3251 63.0053C73.2415 62.4352 73.9465 61.6241 74.4401 60.5703C74.9332 59.5171 75.1798 58.2915 75.1798 56.8924C75.1798 55.4247 74.9373 54.1599 74.4534 53.0975C73.969 52.0351 73.2646 51.2199 72.339 50.6499C71.4134 50.08 70.3106 49.795 69.0311 49.795C67.7515 49.795 66.6475 50.08 65.7231 50.6499C64.7976 51.2199 64.0891 52.0361 63.596 53.0975C63.1029 54.1599 62.8563 55.4247 62.8563 56.8924C62.8563 58.3607 63.1029 59.539 63.596 60.5836C64.0891 61.6281 64.8027 62.4363 65.737 63.0053C66.6706 63.5749 67.7683 63.8602 69.0322 63.8602H69.0299Z" fill="white"/>
<path d="M78.3164 63.7621H98.6305V66.2231H78.3164V63.7621ZM78.3164 72.4397V66.2231H80.7813V72.4397H78.3164ZM80.0544 63.7621C81.0048 63.7621 81.663 63.5546 82.0262 63.1407C82.3894 62.7268 82.6319 61.8419 82.7526 60.4861C82.8732 59.1302 82.9338 56.7263 82.9338 53.272V47.4443H85.3988V53.272C85.3988 57.1569 85.2995 59.9378 85.1009 61.6119C84.9017 63.2877 84.4397 64.4747 83.7128 65.1733C82.9853 65.8726 81.7669 66.2225 80.0544 66.2225V63.761V63.7621ZM93.7012 47.4443V49.9055H85.3988V47.4443H93.7012ZM96.1662 66.2231H93.7012V47.4443H96.1662V66.2231ZM96.2966 72.4397V66.2231H98.6316V72.4397H96.2966Z" fill="white"/>
<path d="M103.438 66.2237H100.973V47.4443H103.438V66.2237Z" fill="white"/>
<path d="M109.289 47.4443L116.762 56.822H114.037L106.305 47.4443H109.289ZM114.037 56.822H116.762L109.289 66.2254H106.305L114.037 56.822ZM114.478 55.6039H118.785V58.0643H114.478V55.6039ZM120.446 66.2254H117.98V47.4443H120.446V66.2254ZM120.446 47.4443V66.2254H117.98V47.4443H120.446ZM119.641 58.0655V55.6051H123.949V58.0655H119.641ZM124.39 56.822H121.665L129.138 47.4443H132.122L124.39 56.822ZM129.138 66.2254L121.665 56.822H124.39L132.122 66.2254H129.138Z" fill="white"/>
<path d="M136.895 66.2237H134.43V47.4443H136.895V66.2237ZM147.791 55.6034V58.0632H136.895V55.6034H147.791ZM150.257 66.2237H147.791V47.4443H150.257V66.2237Z" fill="white"/>
<path d="M161.897 47.4443L155.204 66.2237H152.609L159.303 47.4443H161.897ZM165.659 58.997V61.458H156.372V58.997H165.659ZM162.676 47.4443L168.98 66.2237H166.386L160.081 47.4443H162.676Z" fill="white"/>
<path d="M166.149 10.6868L165.069 5.27252L158.714 6.5351L157.412 0L147.289 2.01089L136.239 4.2061L124.735 6.49158L126.037 13.0267L121.064 14.0146L122.143 19.4289L116.91 20.4685L119.109 31.5008L124.342 30.4612L125.422 35.8801L130.395 34.8922L131.696 41.4226L143.201 39.1372L154.251 36.942L164.374 34.9311L163.072 28.4006L169.428 27.138L168.347 21.7191L173.617 20.6722L171.418 9.63992L166.149 10.6868Z" fill="#FF7915"/>
<path d="M161.66 14.9065L158.19 15.5958L157.548 12.3768L152.538 13.3722L151.97 10.5191L147.048 11.4969L146.537 8.93555L139.62 10.3097L140.131 12.871L135.204 13.8497L135.772 16.7029L130.762 17.6982L131.404 20.9171L127.934 21.6065L128.849 26.2011L132.32 25.5118L132.961 28.7307L137.971 27.7354L138.54 30.5885L143.467 29.6098L143.978 32.1757L150.895 30.8016L150.384 28.2357L155.306 27.2579L154.737 24.4047L159.747 23.4094L159.106 20.1904L162.576 19.5011L161.66 14.9065Z" fill="#FFC73A"/>
<path fill-rule="evenodd" clip-rule="evenodd" d="M137.996 17.6966L141.51 17.0166L143.089 24.9417L149.097 23.7483L148.825 22.3891L150.231 22.1099L150.781 24.8723L141.963 26.6242L140.382 18.6921L138.269 19.1012L137.996 17.6966Z" fill="#1D1D1B"/>
<path fill-rule="evenodd" clip-rule="evenodd" d="M150.695 16.622L148.166 17.1242L147.887 15.721L150.415 15.2188L150.695 16.622Z" fill="#1D1D1B"/>
</svg>
