<svg width="14" height="17" viewBox="0 0 14 17" fill="none" xmlns="http://www.w3.org/2000/svg">
<path fill-rule="evenodd" clip-rule="evenodd" d="M0 7.33763C0 1.29488 3.5 0 7 0C10.5 0 14 1.29488 14 7.33763C14 12.0833 9.68253 15.4979 7.82908 16.7452C7.32413 17.0849 6.67587 17.0849 6.17092 16.7452C4.31747 15.4979 0 12.0833 0 7.33763ZM7 9.49576C8.44975 9.49576 9.625 8.33629 9.625 6.906C9.625 5.47572 8.44975 4.31625 7 4.31625C5.55025 4.31625 4.375 5.47572 4.375 6.906C4.375 8.33629 5.55025 9.49576 7 9.49576Z" fill="#FEF2F3"/>
</svg>
