<svg width="342" height="87" viewBox="0 0 342 87" fill="none" xmlns="http://www.w3.org/2000/svg">
<path d="M337.849 35.2975H341.084V43.571H337.539V38.6156H318.662V43.571H315.117V35.2975C318.248 35.2975 319.814 32.5102 319.814 26.9363V15.168H337.849V35.2975ZM321.587 35.2975H334.127V18.4418H323.536V26.8476C323.536 30.4753 322.887 33.2919 321.587 35.2975Z" fill="white"/>
<path d="M292.266 38.6156V15.168H296.032V25.078H309.946V15.168H313.713V38.6156H309.946V28.6173H296.032V38.6156H292.266Z" fill="white"/>
<path d="M269.834 18.2844C272.168 15.9249 275.019 14.7451 278.387 14.7451C281.784 14.7451 284.649 15.9396 286.983 18.3287C289.346 20.6882 290.528 23.5196 290.528 26.8227C290.528 30.1558 289.346 33.0169 286.983 35.4058C284.649 37.7653 281.784 38.9453 278.387 38.9453C275.019 38.9453 272.153 37.7653 269.79 35.4058C267.456 33.0169 266.289 30.1558 266.289 26.8227C266.289 23.4901 267.471 20.644 269.834 18.2844ZM269.923 26.8227C269.923 29.2416 270.735 31.2915 272.36 32.9725C274.014 34.6241 276.023 35.4502 278.387 35.4502C280.779 35.4502 282.788 34.6097 284.413 32.9281C286.067 31.2471 286.895 29.2122 286.895 26.8227C286.895 24.4339 286.067 22.3989 284.413 20.7177C282.788 19.0365 280.779 18.1959 278.387 18.1959C276.023 18.1959 274.014 19.0365 272.36 20.7177C270.735 22.3989 269.923 24.4339 269.923 26.8227Z" fill="white"/>
<path d="M265.338 23.1101C265.338 26.4723 264.156 29.4071 261.792 31.9141C259.429 34.4212 256.608 35.7188 253.329 35.807V38.6387H249.474V35.807C246.195 35.7188 243.373 34.4212 241.01 31.9141C238.647 29.4071 237.465 26.4723 237.465 23.1101C237.465 19.7772 238.647 16.8721 241.01 14.3946C243.373 11.8876 246.195 10.5898 249.474 10.5014V7.66992H253.329V10.5014C256.608 10.5898 259.429 11.8876 261.792 14.3946C264.156 16.9016 265.338 19.8067 265.338 23.1101ZM241.276 23.1101C241.276 25.6465 242.059 27.7999 243.625 29.5691C245.22 31.3094 247.17 32.2087 249.474 32.2681V14.0406C247.17 14.0996 245.22 15.0139 243.625 16.7836C242.059 18.5237 241.276 20.6326 241.276 23.1101ZM253.329 32.2681C255.663 32.2087 257.613 31.2944 259.178 29.5252C260.773 27.7555 261.571 25.6171 261.571 23.1101C261.571 20.6326 260.773 18.5237 259.178 16.7836C257.583 15.0434 255.633 14.1291 253.329 14.0406V32.2681Z" fill="white"/>
<path d="M215.627 18.2844C217.961 15.9249 220.812 14.7451 224.18 14.7451C227.577 14.7451 230.442 15.9396 232.776 18.3287C235.139 20.6882 236.321 23.5196 236.321 26.8227C236.321 30.1558 235.139 33.0169 232.776 35.4058C230.442 37.7653 227.577 38.9453 224.18 38.9453C220.812 38.9453 217.946 37.7653 215.583 35.4058C213.249 33.0169 212.082 30.1558 212.082 26.8227C212.082 23.4901 213.264 20.644 215.627 18.2844ZM215.716 26.8227C215.716 29.2416 216.529 31.2915 218.153 32.9725C219.808 34.6241 221.816 35.4502 224.18 35.4502C226.572 35.4502 228.581 34.6097 230.206 32.9281C231.86 31.2471 232.688 29.2122 232.688 26.8227C232.688 24.4339 231.86 22.3989 230.206 20.7177C228.581 19.0365 226.572 18.1959 224.18 18.1959C221.816 18.1959 219.808 19.0365 218.153 20.7177C216.529 22.3989 215.716 24.4339 215.716 26.8227Z" fill="white"/>
<path d="M187.059 38.7926V35.4744C188.92 35.5926 190.16 35.0617 190.781 33.8822C191.431 32.6728 191.756 30.9618 191.756 28.7499V15.168H209.924V38.6156H206.202V18.663H195.522V28.7943C195.522 30.2983 195.389 31.6403 195.124 32.8204C194.858 33.9704 194.415 35.0323 193.794 36.0054C193.203 36.979 192.332 37.7163 191.179 38.2179C190.057 38.6894 188.683 38.8814 187.059 38.7926Z" fill="white"/>
<path d="M167.01 18.2844C169.343 15.9249 172.195 14.7451 175.562 14.7451C178.959 14.7451 181.825 15.9396 184.159 18.3287C186.522 20.6882 187.704 23.5196 187.704 26.8227C187.704 30.1558 186.522 33.0169 184.159 35.4058C181.825 37.7653 178.959 38.9453 175.562 38.9453C172.195 38.9453 169.329 37.7653 166.966 35.4058C164.632 33.0169 163.465 30.1558 163.465 26.8227C163.465 23.4901 164.646 20.644 167.01 18.2844ZM167.098 26.8227C167.098 29.2416 167.911 31.2915 169.536 32.9725C171.19 34.6241 173.199 35.4502 175.562 35.4502C177.955 35.4502 179.963 34.6097 181.588 32.9281C183.243 31.2471 184.07 29.2122 184.07 26.8227C184.07 24.4339 183.243 22.3989 181.588 20.7177C179.963 19.0365 177.955 18.1959 175.562 18.1959C173.199 18.1959 171.19 19.0365 169.536 20.7177C167.911 22.3989 167.098 24.4339 167.098 26.8227Z" fill="white"/>
<path d="M134.488 7.66992L144.282 37.1785L154.074 7.66992H161.209V38.6387H157.442V9.3953L147.782 38.6387H140.736L131.165 9.57227V38.6387H127.398V7.66992H134.488Z" fill="white"/>
<path d="M209.375 76.4157V52.9678H221.694C223.968 52.9678 225.815 53.5131 227.233 54.6044C228.651 55.6662 229.359 57.1708 229.359 59.117C229.359 61.7128 228.178 63.4676 225.815 64.3819C228.71 65.208 230.157 67.0365 230.157 69.8676C230.157 71.8731 229.404 73.4659 227.897 74.646C226.42 75.8254 224.5 76.4157 222.137 76.4157H209.375ZM213.009 63.1431H221.25C222.639 63.1431 223.717 62.8479 224.486 62.2582C225.283 61.6684 225.682 60.7985 225.682 59.6479C225.711 58.5273 225.342 57.6868 224.574 57.1264C223.835 56.5367 222.787 56.2416 221.428 56.2416H213.009V63.1431ZM213.009 73.0976H221.738C224.81 73.0976 226.347 71.9031 226.347 69.5136C226.347 67.1247 224.751 65.9303 221.56 65.9303H213.009V73.0976Z" fill="white"/>
<path d="M206.136 52.9899V76.4379H202.369V52.9899H206.136ZM202.413 44.9822C202.915 44.4807 203.551 44.2305 204.319 44.2305C205.057 44.2305 205.678 44.4807 206.18 44.9822C206.712 45.4837 206.977 46.1028 206.977 46.8407C206.977 47.578 206.712 48.1972 206.18 48.6987C205.678 49.1702 205.057 49.4066 204.319 49.4066C203.551 49.4066 202.915 49.1702 202.413 48.6987C201.911 48.1972 201.66 47.578 201.66 46.8407C201.66 46.1028 201.911 45.4837 202.413 44.9822Z" fill="white"/>
<path d="M179.398 76.4157V52.9678H191.717C193.992 52.9678 195.838 53.5131 197.256 54.6044C198.674 55.6662 199.383 57.1708 199.383 59.117C199.383 61.7128 198.201 63.4676 195.838 64.3819C198.733 65.208 200.181 67.0365 200.181 69.8676C200.181 71.8731 199.428 73.4659 197.921 74.646C196.444 75.8254 194.524 76.4157 192.161 76.4157H179.398ZM183.032 63.1431H191.274C192.662 63.1431 193.741 62.8479 194.509 62.2582C195.306 61.6684 195.705 60.7985 195.705 59.6479C195.735 58.5273 195.366 57.6868 194.597 57.1264C193.859 56.5367 192.81 56.2416 191.452 56.2416H183.032V63.1431ZM183.032 73.0976H191.762C194.834 73.0976 196.37 71.9031 196.37 69.5136C196.37 67.1247 194.775 65.9303 191.584 65.9303H183.032V73.0976Z" fill="white"/>
<path d="M157.031 76.4157V52.9678H160.665V60.9755L169.793 61.0193C172.038 61.0193 173.884 61.7716 175.332 63.2757C176.779 64.7802 177.504 66.6088 177.504 68.7619C177.504 70.8851 176.779 72.6992 175.332 74.2032C173.884 75.6778 172.038 76.4157 169.793 76.4157H157.031ZM160.665 73.0088H168.863C170.399 73.0088 171.595 72.6104 172.452 71.8143C173.309 71.0182 173.737 69.9858 173.737 68.7175C173.737 67.4493 173.309 66.4168 172.452 65.6207C171.595 64.824 170.399 64.4263 168.863 64.4263L160.665 64.3819V73.0088Z" fill="white"/>
<path d="M127.398 76.5967V73.0134C128.433 73.1016 129.333 72.984 130.101 72.6594C130.87 72.3055 131.46 71.8334 131.874 71.2436C132.317 70.6539 132.672 69.9016 132.937 68.9873C133.204 68.073 133.366 67.1882 133.425 66.3327C133.514 65.4778 133.558 64.5041 133.558 63.4128V45.4512H154.163V76.4198H150.263V49.0789H137.457V63.4572C137.457 64.9906 137.354 66.4065 137.147 67.7041C136.97 69.0023 136.63 70.2261 136.128 71.3762C135.655 72.5268 135.035 73.4999 134.267 74.296C133.528 75.0633 132.568 75.6675 131.387 76.1102C130.235 76.5229 128.905 76.6855 127.398 76.5967Z" fill="white"/>
<path fill-rule="evenodd" clip-rule="evenodd" d="M113.78 44.5312V45.4668C113.78 50.2371 111.661 54.7238 107.056 57.9301C103.144 60.6562 97.6012 62.3522 90.3294 62.8289V67.0251H70.703V85.4404H46.992V64.1295H46.7517L46.7348 64.5687C46.4641 71.3388 44.9109 76.8562 41.4119 80.677C37.8318 84.5861 32.756 86.1403 26.7834 86.1403C23.2709 86.1403 20.2762 85.6364 19.0072 85.373L16.4253 84.8357V65.1936L20.0461 65.6196C20.777 65.7038 21.7144 65.7851 22.5231 65.7851C22.9597 65.7851 23.1492 65.724 23.1965 65.7038H23.1999C23.1999 65.7038 23.2033 65.7038 23.2033 65.7003L23.2134 65.6905L23.2202 65.6802C23.3555 65.498 23.7549 64.7105 23.8225 62.3897V62.3758L24.4486 44.8488H43.3509V44.5312C43.3509 43.1897 43.5201 41.8691 43.8619 40.5922H38.3766L38.3902 35.7268L36.0316 40.5922H25.2742L22.9089 35.7268L22.9359 40.5922H0V0H26.5094L30.6275 8.75353L34.7491 0H61.255V27.7807C62.9774 27.4734 64.8285 27.2538 66.8044 27.1224V23.1625H90.3294V27.1224C97.6046 27.602 103.148 29.3112 107.062 32.0477C111.665 35.2673 113.78 39.7644 113.78 44.5312Z" fill="white"/>
</svg>
